<?xml version="1.0" encoding="iso-8859-1"?>
<!-- Generator: Adobe Illustrator 19.0.0, SVG Export Plug-In . SVG Version: 6.00 Build 0)  -->
<svg version="1.1" id="Layer_1" xmlns="http://www.w3.org/2000/svg" xmlns:xlink="http://www.w3.org/1999/xlink" x="0px" y="0px"
	 viewBox="0 0 512 512" style="enable-background:new 0 0 512 512;" xml:space="preserve">
<g transform="translate(0 1)">
	<g>
		<path style="fill:#FFE100;" d="M416,328.143c0-38.4-11.886-83.2-11.886-83.2v-0.914c5.486-16.457-3.657-34.743-20.114-40.229
			c-8.229-2.743-17.371-1.829-24.686,1.829c14.629,7.314,21.943,23.771,16.457,39.314v0.914c0,0,11.886,45.714,11.886,83.2
			c0,65.829-0.914,74.971-27.429,109.714l0,0v36.571c0,13.714,12.8,25.6,2.743,27.429c13.714-0.914,24.686-12.8,24.686-27.429
			v-36.571l0,0C415.086,402.2,416,393.971,416,328.143"/>
		<path style="fill:#FFE100;" d="M260.571,172.714v-4.571c0-17.371-14.629-32-32.914-32s-31.086,14.629-31.086,32v77.714V40.143
			c0-17.371-0.914-32-18.286-32S160,22.771,160,40.143v260.571l11.886-10.057L160,300.714c-24.686,17.371-27.429,33.829-27.429,64
			l0,0c0,42.971,36.571,73.143,36.571,73.143l0,0v36.571c0,15.543,11.886,27.429,27.429,27.429h137.143c14.629,0,0-11.886,0-27.429
			v-36.571l0,0c26.514-35.657,27.429-43.886,27.429-109.714c0-38.4-11.886-83.2-11.886-83.2v-0.914
			c5.486-16.457-3.657-34.743-20.114-40.229s-8.229,3.657-13.714,20.114l6.4-18.286c5.486-16.457-2.743-33.829-19.2-39.314
			L300.8,165.4c-16.457-5.486-33.829,2.743-39.314,19.2l-3.657,10.057L260.571,172.714z"/>
	</g>
	<path style="fill:#FFA800;" d="M388.571,328.143c0-38.4-11.886-83.2-11.886-83.2v-0.914c5.486-16.457-3.657-34.743-20.114-40.229
		c-8.229-2.743-17.371-1.829-24.686,1.829c14.629,7.314,21.943,23.771,16.457,39.314v0.914c0,0,11.886,45.714,11.886,83.2
		c0,65.829-0.914,74.971-27.429,109.714l0,0v36.571c0,13.714,12.8,25.6,2.743,27.429c13.714-0.914,24.686-12.8,24.686-27.429
		v-36.571l0,0C387.657,402.2,388.571,393.971,388.571,328.143"/>
	<path style="fill:#FFFFFF;" d="M169.143,474.429v-36.571l0,0c0,0-36.571-30.171-36.571-73.143l0,0c0-30.171,2.743-46.629,27.429-64
		V40.143c0-15.543,0.914-27.429,11.886-31.086c-2.743-0.914-4.571-0.914-7.314-0.914c-17.371,0-32,14.629-32,32v260.571
		c-24.686,17.371-27.429,33.829-27.429,64l0,0c0,42.971,36.571,73.143,36.571,73.143l0,0v36.571
		c0,15.543,11.886,27.429,27.429,27.429h27.429C181.029,501.857,169.143,489.971,169.143,474.429"/>
	<path d="M313.6,370.2c-4.571,0-9.143-0.914-13.714-1.829c-10.057-3.657-18.286-10.971-23.771-21.029
		c-4.571-10.057-5.486-21.029-1.829-31.086l32.914-95.086c3.657-10.057,10.971-18.286,21.029-23.771
		c10.057-4.571,21.029-5.486,31.086-1.829c10.057,3.657,18.286,10.971,23.771,21.029c5.486,10.057,5.486,21.029,1.829,31.086
		L352,342.771c-3.657,10.057-10.971,18.286-21.029,23.771C326.4,368.371,320,370.2,313.6,370.2z M346.514,211.114
		c-3.657,0-7.314,0.914-10.057,2.743c-5.486,2.743-10.057,7.314-11.886,12.8l-32.914,95.086c-1.829,5.486-1.829,11.886,0.914,17.371
		c2.743,5.486,7.314,10.057,12.8,11.886l0,0c5.486,1.829,11.886,1.829,17.371-0.914c5.486-2.743,10.057-7.314,11.886-12.8
		l32.914-95.086c1.829-5.486,1.829-11.886-0.914-17.371s-7.314-10.057-12.8-11.886C351.086,211.114,349.257,211.114,346.514,211.114
		z"/>
	<path d="M170.971,385.743c-3.657,0-7.314-1.829-8.229-5.486c-1.829-4.571,0-10.057,4.571-11.886
		c19.2-8.229,79.543-74.971,92.343-106.057c2.743-8.229,0.914-18.286-4.571-22.857c-7.314-5.486-19.2-3.657-33.829,6.4
		c-15.543,10.057-53.943,40.229-83.2,62.171c-3.657,2.743-10.057,2.743-12.8-1.829c-2.743-3.657-2.743-10.057,1.829-12.8
		c29.257-21.943,67.657-52.114,84.114-62.171c30.171-20.114,48.457-10.971,54.857-5.486c11.886,10.057,16.457,27.429,10.057,43.886
		c-13.714,32.914-75.886,104.229-101.486,115.2C172.8,385.743,171.886,385.743,170.971,385.743z"/>
	<path d="M256.914,340.943c-4.571,0-9.143-0.914-12.8-1.829l-1.829-0.914c-6.4-2.743-12.8-6.4-17.371-12.8
		c-2.743-3.657-2.743-8.229,0-11.886c17.371-21.029,30.171-40.229,34.743-51.2c4.571-10.971-2.743-28.343-13.714-32.914
		c-4.571-1.829-6.4-6.4-4.571-10.971l12.8-36.571c7.314-21.029,30.171-32,51.2-24.686l1.829,0.914
		c10.057,3.657,18.286,10.971,22.857,20.114c4.571,10.057,5.486,21.029,1.829,31.086l-36.571,105.143
		C288.914,329.971,273.371,340.943,256.914,340.943z M244.114,319c0.914,0.914,2.743,1.829,3.657,1.829l1.829,0.914
		c11.886,3.657,23.771-1.829,28.343-13.714l36.571-105.143c1.829-5.486,1.829-11.886-0.914-16.457
		c-2.743-5.486-7.314-9.143-12.8-10.971l0,0l-1.829-0.914c-11.886-3.657-23.771,1.829-28.343,13.714l-10.057,29.257
		c14.629,11.886,22.857,34.743,15.543,52.114C271.543,281.514,259.657,298.886,244.114,319z"/>
	<path d="M334.629,511H169.143c-20.114,0-36.571-16.457-36.571-36.571v-32.914c-10.057-9.143-36.571-38.4-36.571-76.8V363.8
		c0-28.343,2.743-48.457,27.429-67.657v-160c0-5.486,3.657-9.143,9.143-9.143l0,0c5.486,0,9.143,3.657,9.143,9.143v146.286
		c3.657-0.914,7.314,0,10.057,2.743c1.829,1.829,1.829,3.657,1.829,5.486c0,2.743-0.914,5.486-3.657,7.314l-11.886,10.057
		l-0.914,0.914c-21.029,14.629-22.857,27.429-22.857,55.771v0.914c0.914,37.486,32.914,64.914,32.914,64.914
		c2.743,1.829,3.657,4.571,3.657,7.314v36.571c0,10.057,8.229,18.286,18.286,18.286h165.486c10.057,0,17.371-8.229,17.371-18.286
		v-35.657c0-1.829,0-4.571,1.829-6.4c24.686-32.914,25.6-40.229,25.6-104.229c0-36.571-11.886-80.457-11.886-80.457
		c-0.914-1.829,0-3.657,0-5.486c4.571-12.8-1.829-25.6-13.714-29.257c-5.486-1.829-11.886-1.829-17.371,0.914
		c-5.486,2.743-10.057,7.314-11.886,12.8c-1.829,4.571-6.4,7.314-11.886,5.486c-4.571-1.829-7.314-6.4-5.486-11.886l6.4-18.286
		c3.657-11.886-1.829-23.771-13.714-28.343l-1.829-0.914c-5.486-1.829-11.886-1.829-16.457,0.914
		c-5.486,2.743-9.143,7.314-10.971,12.8l-3.657,10.057c-1.829,4.571-6.4,7.314-10.971,6.4c-4.571-0.914-7.314-5.486-7.314-10.057
		l2.743-21.029v-3.657c0-12.8-10.971-22.857-23.771-22.857c-6.4,0-11.886,2.743-16.457,6.4c-3.657,3.657-6.4,9.143-6.4,14.629
		v78.629l0,0l0,0c0,5.486-3.657,9.143-9.143,9.143l0,0c-5.486,0-9.143-3.657-9.143-9.143v-77.714c0-0.914,0-0.914,0-1.829V39.229
		c0.914-11.886-9.143-21.943-21.943-21.943c-12.8,0-22.857,10.057-22.857,22.857V63c0,5.486-3.657,9.143-9.143,9.143l0,0
		c-4.571,0-9.143-3.657-9.143-9.143V40.143C123.429,17.286,141.714-1,164.571-1s41.143,18.286,41.143,41.143v94.171
		c6.4-4.571,14.629-7.314,22.857-7.314c20.114,0,37.486,14.629,41.143,33.829c0.914-0.914,2.743-1.829,4.571-2.743
		c10.057-4.571,21.029-5.486,31.086-1.829l1.829,0.914c16.457,5.486,27.429,21.029,27.429,37.486c8.229-2.743,18.286-2.743,26.514,0
		c21.029,7.314,32,29.257,26.514,50.286c0.914,10.971,10.057,49.371,10.057,83.2c0,64-0.914,76.8-27.429,112.457v33.829
		C370.286,495.457,354.743,511,334.629,511z"/>
	<path d="M141.714,99.571c0-5.486-3.657-9.143-9.143-9.143c-5.486,0-9.143,3.657-9.143,9.143s3.657,9.143,9.143,9.143
		C138.057,108.714,141.714,105.057,141.714,99.571"/>
</g>
<g>
</g>
<g>
</g>
<g>
</g>
<g>
</g>
<g>
</g>
<g>
</g>
<g>
</g>
<g>
</g>
<g>
</g>
<g>
</g>
<g>
</g>
<g>
</g>
<g>
</g>
<g>
</g>
<g>
</g>
</svg>
